<svg xmlns="http://www.w3.org/2000/svg" width="177" height="40" viewBox="0 0 177 40"><g fill="none" fill-rule="evenodd"><path fill="#000" d="M68.816 20.683V5.318h11.488v3.008h-8.16v3.116h7.182v3.007h-7.18v3.22h8.268v3.01zm22.476-5.904c0-1.96-1.283-3.25-2.83-3.25-1.543 0-2.85 1.27-2.85 3.25v.04c0 1.95 1.307 3.25 2.85 3.25 1.547 0 2.83-1.3 2.83-3.25v-.05zm-.043 5.9v-1.69c-.81 1.09-1.92 1.91-3.64 1.91-2.72 0-5.31-2.15-5.31-6.08v-.05c0-3.93 2.54-6.08 5.31-6.08 1.76 0 2.85.81 3.63 1.75V4.66h3.3v16.023h-3.3zm13.55 0v-1.67c-.76.98-1.74 1.88-3.42 1.88-2.5 0-3.96-1.67-3.96-4.37V8.91h3.31v6.563c0 1.58.74 2.4 2 2.4s2.07-.814 2.07-2.395V8.92h3.3v11.765h-3.3zm11.77.26c-3.5 0-6.07-2.72-6.07-6.08v-.05c0-3.36 2.54-6.13 6.11-6.13 2.19 0 3.57.74 4.65 1.97l-2.03 2.19c-.74-.79-1.48-1.3-2.66-1.3-1.66 0-2.83 1.47-2.83 3.2v.04c0 1.8 1.15 3.24 2.96 3.24 1.11 0 1.87-.48 2.67-1.25l1.93 1.97c-1.13 1.25-2.44 2.15-4.77 2.15m13.81-5.01c-.56-.26-1.31-.44-2.11-.44-1.41 0-2.28.57-2.28 1.62v.04c0 .9.74 1.43 1.8 1.43 1.54 0 2.59-.86 2.59-2.06v-.59zm-.06 4.74V19.4c-.81.9-1.92 1.49-3.53 1.49-2.2 0-4.01-1.272-4.01-3.6v-.042c0-2.57 1.94-3.757 4.7-3.757 1.17 0 2.02.2 2.85.48v-.2c0-1.38-.85-2.15-2.5-2.15-1.26 0-2.16.25-3.22.64l-.82-2.54c1.28-.57 2.54-.94 4.52-.94 3.61 0 5.2 1.89 5.2 5.07v6.83h-3.2zm9.88.2c-2.03 0-3.4-.81-3.4-3.54v-5.57h-1.39v-2.8h1.39v-3h3.31v3.01h2.74v2.85h-2.74v5.03c0 .76.32 1.14 1.06 1.14.61 0 1.15-.16 1.63-.42v2.68c-.7.41-1.5.68-2.61.68m5.24-.2h3.31V8.91h-3.3v11.77zm-.08-13.06h3.48V4.66h-3.48v2.963zm15.29 7.2c0-1.74-1.24-3.25-3.07-3.25-1.89 0-3.02 1.47-3.02 3.2v.04c0 1.73 1.24 3.25 3.07 3.25 1.89 0 3.02-1.47 3.02-3.21v-.05zm-3.07 6.12c-3.61 0-6.29-2.7-6.29-6.08v-.048c0-3.38 2.7-6.124 6.34-6.124 3.61 0 6.28 2.7 6.28 6.08v.04c0 3.38-2.69 6.12-6.33 6.12zm16.1-.268v-6.56c0-1.58-.74-2.393-2-2.393s-2.06.812-2.06 2.392v6.562h-3.31V8.914h3.31v1.67c.76-.99 1.74-1.886 3.41-1.886 2.5 0 3.96 1.66 3.96 4.36v7.61h-3.3zM68.5 31.712l1.09-1.31c.704.56 1.47.85 2.286.85.534 0 .816-.18.816-.483v-.02c0-.31-.232-.46-1.2-.7-1.5-.35-2.66-.78-2.66-2.23v-.02c0-1.32 1.038-2.28 2.73-2.28 1.2 0 2.138.32 2.904.94l-.978 1.39c-.645-.47-1.35-.7-1.975-.7-.473 0-.705.19-.705.45v.02c0 .32.24.47 1.23.69 1.61.35 2.62.88 2.62 2.22v.02c0 1.45-1.14 2.31-2.852 2.31-1.25 0-2.43-.4-3.306-1.18m9.04-2.07v-3.99h1.975v3.96c0 1.02.514 1.51 1.3 1.51.796 0 1.31-.47 1.31-1.47v-4H84.1v3.95c0 2.28-1.3 3.3-3.305 3.3-1.996 0-3.255-1.03-3.255-3.26m12.627-.46c.686 0 1.118-.38 1.118-.94v-.02c0-.61-.432-.93-1.127-.93h-.928v1.88h.937zm-2.89-3.54h3.032c1.77 0 2.92.92 2.92 2.49v.02c0 1.69-1.28 2.57-3.03 2.57h-.98v2.03h-1.95v-7.11zm8.796 0h5.674v1.67H98.01v1.09h3.384v1.55H98.01v1.13h3.786v1.68h-5.723zm12.002 3.41c.656 0 1.048-.33 1.048-.85v-.02c0-.57-.412-.86-1.057-.86h-1.29v1.72h1.3zm-3.255-3.42h3.34c1.08 0 1.83.28 2.3.76.42.41.63.95.63 1.65v.02c0 1.1-.57 1.82-1.45 2.19l1.69 2.48h-2.24l-1.42-2.16h-.86v2.15h-1.95v-7.1zm9.27 0h1.96v2.67h2.51v-2.66h1.96v7.11h-1.95v-2.7h-2.51v2.71h-1.96zm9.74 7.11h1.96V25.6h-1.95zm5.03-3.537v-.02c0-2.074 1.61-3.7 3.79-3.7 1.24 0 2.12.376 2.86 1.025l-1.15 1.4c-.5-.43-.99-.67-1.7-.67-1.01 0-1.8.85-1.8 1.94v.02c0 1.16.8 1.985 1.92 1.985.49 0 .85-.1 1.13-.29v-.86h-1.38v-1.44h3.23v3.19a4.667 4.667 0 0 1-3.06 1.11c-2.19 0-3.82-1.525-3.82-3.68m10-3.577h1.96v2.67h2.51v-2.66h1.96v7.11h-1.95v-2.7h-2.51v2.71h-1.95zm9.21 0h2.07l1.23 4.11 1.36-4.14h1.68l1.36 4.136 1.23-4.12h2.03l-2.36 7.164h-1.7l-1.41-4.09-1.42 4.1h-1.7zm16.99 4.3l-.78-2.02-.79 2.01h1.58zm-1.71-4.35h1.88l3.01 7.16h-2.09l-.5-1.28h-2.73l-.51 1.28h-2.04l3-7.17zm8.53 4.5l-2.69-4.46h2.23l1.45 2.59 1.46-2.6h2.19l-2.68 4.42v2.69h-1.95z"/><path fill="#FFF" d="M59.585 7.008H55.09c-.992 0-1.408.417-1.408 1.42v10.494c0 1.004.416 1.42 1.41 1.42h4.493V7.007zM4.357 6.99H.004v13.334h4.353c.993 0 1.407-.416 1.407-1.42V8.41c0-1.003-.414-1.42-1.407-1.42"/><path fill="#FDB913" d="M35.174 17.588c0 .395-.626.904-1.018.904H25.11c-.392 0-.927-.51-.927-.904v-9.26c0-.394.535-1.11.927-1.11h9.046c.392 0 1.018.716 1.018 1.11v9.26zm-5.602 2.724c-.375 0-.712-.317-.712-.694 0-.38.384-.79.76-.79.374 0 .783.363.783.742 0 .377-.456.742-.83.742zm25.54-13.526h4.486V5.618c0-3.446-1.872-5.295-5.29-5.295H5.085C1.668.323 0 2.173 0 5.618v1.168h4.14c.993 0 1.798.635 1.798 1.637v10.495c0 1.004-.805 1.67-1.798 1.67H0v9.043c0 3.45 1.668 5.17 5.084 5.17H54.31c3.417 0 5.29-1.71 5.29-5.16v-9.05h-4.49c-.992 0-1.567-.66-1.567-1.67V8.43c0-1.002.575-1.637 1.567-1.637z"/><path fill="#231F20" d="M34.24 6.61h-9.06c-.994 0-1.8.81-1.8 1.814v10.493c0 1.004.806 1.815 1.8 1.815h9.06c.992 0 1.797-.81 1.797-1.815V8.424A1.806 1.806 0 0 0 34.24 6.61"/><path fill="#FFF" d="M29.62 20.257a.683.683 0 0 1-.678-.686c0-.37.304-.68.68-.68.374 0 .678.31.678.69a.683.683 0 0 1-.68.69m5.247-2.67a.713.713 0 0 1-.71.72H25.11a.712.712 0 0 1-.71-.71V8.33c0-.394.32-.715.71-.715h9.046c.392 0 .71.32.71.716v9.26z"/><path fill="#231F20" d="M4.357 6.596H.004V7.6H4.35c.392 0 .71.32.71.717v9.258a.714.714 0 0 1-.71.715H.004v.584a.68.68 0 0 1 .67.685.682.682 0 0 1-.67.68v.47h4.353c.993 0 1.798-.81 1.798-1.82V8.41a1.806 1.806 0 0 0-1.798-1.814m55.168 13.562a.682.682 0 0 1-.68-.684c0-.38.305-.686.68-.686l.06.002v-.483h-4.488a.713.713 0 0 1-.71-.715V8.334c0-.396.318-.717.71-.717h4.488V6.613H55.09c-.99 0-1.797.812-1.797 1.815V18.92c0 1.004.806 1.815 1.797 1.815h4.496v-.58c-.042 0-.052.002-.06.002m-41.403-6.955c0 1.804-1.45 3.267-3.237 3.267-1.79 0-3.238-1.47-3.238-3.27 0-1.81 1.448-3.27 3.238-3.27 1.787 0 3.237 1.46 3.237 3.26m30.104 0c0 1.8-1.45 3.26-3.237 3.26-1.788 0-3.238-1.47-3.238-3.27 0-1.81 1.45-3.27 3.238-3.27 1.787 0 3.237 1.46 3.237 3.26"/><path fill="#231F20" d="M18.122 21.364c1.673-1.57 6.626-4.895 7.384-5.4.435-.303.738-.55.738-1.026 0-.61-.5-1.1-1.116-1.1-.21 0-.577.153-.583.145l.006-.006S18.95 16.71 18 16.97c-.54.142-1.89.36-3.262.36-1.37 0-2.633-.25-3.242-.36-.97-.18-6.555-2.996-6.555-2.996l.01.006v.006a1.102 1.102 0 0 0-.53-.15c-.62 0-1.12.49-1.12 1.1 0 .415.27.67.59.952h-.01s5.68 3.77 7.49 5.473c.06.11.24.29.24.91 0 1.22.12 3.29-.79 4.5-2.15 2.91-3.97 6.64-5.08 9.84-.31.9.16 1.89 1.06 2.2.19.07.38.1.57.1.71 0 1.37-.44 1.62-1.16 1.83-5.28 4.42-9.41 5.7-10.21h.15c1.29.8 3.88 4.93 5.7 10.21a1.714 1.714 0 0 0 2.19 1.07 1.732 1.732 0 0 0 1.05-2.2c-1.11-3.21-2.92-6.93-5.08-9.84-.9-1.21-.79-3.29-.79-4.5 0-.62.18-.8.24-.91m30.11 0c1.68-1.57 6.63-4.89 7.39-5.4.44-.3.74-.55.74-1.02 0-.61-.5-1.1-1.11-1.1-.21 0-.57.16-.58.15h.01s-5.6 2.73-6.56 2.99c-.54.15-1.89.36-3.26.36-1.37 0-2.63-.25-3.24-.36-.97-.17-6.56-2.99-6.56-2.99l.01.01v.01a1.106 1.106 0 0 0-.53-.15c-.62 0-1.12.49-1.12 1.1 0 .41.27.67.59.95s5.68 3.77 7.5 5.48c.06.11.24.29.24.91 0 1.22.12 3.29-.79 4.5-2.15 2.91-3.97 6.64-5.08 9.84-.31.9.16 1.89 1.06 2.2.19.07.38.1.57.1.71 0 1.37-.44 1.62-1.16 1.825-5.28 4.41-9.41 5.7-10.21H45c1.29.8 3.875 4.93 5.7 10.21.25.72.913 1.16 1.62 1.16.19 0 .38-.03.57-.09a1.733 1.733 0 0 0 1.05-2.2c-1.11-3.21-2.924-6.93-5.08-9.84-.904-1.21-.79-3.29-.79-4.5 0-.62.178-.8.24-.91"/></g></svg>
